<svg width="221" height="40" viewBox="0 0 221 40" fill="none" xmlns="http://www.w3.org/2000/svg">
<g clip-path="url(#clip0_200_686)">
<path d="M73.8964 2.11212H2.11182V37.8877H73.8964V2.11212Z" fill="white"/>
<path d="M71.7846 4.22425V35.7758H4.22357V4.22425H71.7846ZM76.0082 0.000732422H0V39.9993H76.0082V0.000732422Z" fill="#3198D0"/>
<path d="M99.4698 18.978C99.0923 19.7804 98.5375 20.4865 97.8472 21.0432C97.1313 21.6119 96.3114 22.0355 95.4334 22.2904C94.4712 22.5735 93.4726 22.7136 92.4697 22.7061H89.3318V28.3385H85.2014V9.5639H92.8719C93.897 9.54791 94.9173 9.70666 95.8892 10.0333C96.7234 10.3163 97.4904 10.7682 98.1422 11.3609C98.7591 11.9337 99.2441 12.6338 99.5637 13.4127C99.9027 14.2517 100.071 15.1497 100.06 16.0546V16.108C100.081 17.0968 99.8797 18.0778 99.4698 18.978ZM95.8759 16.1351C95.9018 15.7364 95.834 15.3371 95.678 14.9692C95.522 14.6014 95.2821 14.2751 94.9774 14.0165C94.2675 13.499 93.4004 13.2431 92.5233 13.2923H89.3316V19.0317H92.6037C93.4846 19.0868 94.3518 18.7929 95.0177 18.2136C95.2956 17.9557 95.5157 17.642 95.6636 17.2929C95.8116 16.9439 95.8839 16.5675 95.8759 16.1884V16.1351Z" fill="#365194"/>
<path d="M116.957 24.0874C116.572 24.978 116.016 25.7845 115.321 26.4611C114.609 27.1504 113.771 27.6966 112.854 28.0702C111.866 28.4712 110.808 28.6718 109.742 28.6604C108.687 28.6703 107.639 28.4745 106.658 28.0837C105.744 27.7216 104.911 27.1839 104.204 26.5012C103.514 25.8283 102.962 25.0264 102.581 24.141C102.185 23.2225 101.984 22.2314 101.991 21.2309V21.1772C101.984 20.1768 102.185 19.1858 102.581 18.2672C102.966 17.3766 103.522 16.5702 104.217 15.8935C104.929 15.2044 105.767 14.6582 106.685 14.2842C107.673 13.8833 108.73 13.6828 109.796 13.6943C110.852 13.6844 111.899 13.8803 112.88 14.2709C113.794 14.6334 114.627 15.171 115.335 15.8533C116.025 16.5265 116.576 17.3283 116.957 18.2135C117.354 19.1321 117.554 20.1232 117.547 21.1236V21.177C117.555 22.1776 117.354 23.1687 116.957 24.0874ZM113.524 21.1773C113.527 20.6601 113.436 20.1466 113.256 19.662C112.903 18.7163 112.189 17.9494 111.271 17.5297C110.791 17.312 110.269 17.2022 109.742 17.2079C109.203 17.1978 108.668 17.3029 108.173 17.5163C107.729 17.7132 107.332 18.001 107.006 18.3612C106.681 18.7246 106.431 19.1484 106.269 19.6084C106.097 20.0949 106.011 20.6076 106.014 21.1237V21.1771C106.011 21.6943 106.102 22.2079 106.282 22.6925C106.636 23.6336 107.343 24.3989 108.254 24.8247C108.737 25.0453 109.264 25.1553 109.796 25.1466C110.335 25.1569 110.87 25.0518 111.365 24.8382C111.809 24.6416 112.206 24.3537 112.532 23.9933C112.857 23.63 113.107 23.2062 113.269 22.7462C113.441 22.2596 113.527 21.7469 113.524 21.2308V21.1773Z" fill="#365194"/>
<path d="M120.685 28.3385V8.75912H124.762V28.3385H120.685Z" fill="#365194"/>
<path d="M128.677 12.3801V8.75928H132.969V12.3801H128.677ZM128.785 28.3385V13.9626H132.861V28.3385H128.785Z" fill="#365194"/>
<path d="M146.969 27.9228C145.886 28.4566 144.688 28.7102 143.482 28.6604C142.455 28.6694 141.438 28.4686 140.491 28.0702C139.607 27.704 138.804 27.1657 138.13 26.4866C137.455 25.8075 136.922 25.0011 136.562 24.1143C136.184 23.2002 135.993 22.22 135.999 21.231V21.1773C135.994 20.1841 136.185 19.1996 136.562 18.2807C136.922 17.3923 137.45 16.5818 138.118 15.8936C138.794 15.2043 139.601 14.6572 140.491 14.2843C141.455 13.8826 142.491 13.6818 143.536 13.6944C144.696 13.6549 145.851 13.8748 146.915 14.3381C147.81 14.768 148.612 15.3694 149.275 16.1082L146.781 18.7904C146.358 18.3415 145.875 17.9534 145.346 17.637C144.782 17.3336 144.148 17.1855 143.509 17.2079C143.022 17.2009 142.54 17.3065 142.101 17.5163C141.681 17.7214 141.307 18.0087 141.001 18.3612C140.683 18.7275 140.437 19.1507 140.277 19.6084C140.105 20.0949 140.018 20.6076 140.022 21.1237V21.1771C140.018 21.7064 140.104 22.2325 140.277 22.7328C140.436 23.1979 140.687 23.6265 141.014 23.9933C141.336 24.3515 141.729 24.6391 142.168 24.8382C142.64 25.0492 143.152 25.1544 143.67 25.1466C144.29 25.1608 144.903 25.0178 145.453 24.7309C146.003 24.4246 146.512 24.0507 146.968 23.6179L149.356 26.0317C148.671 26.7907 147.864 27.4299 146.969 27.9228Z" fill="#365194"/>
<path d="M160.165 28.6872C159.936 29.3336 159.649 29.9577 159.306 30.5513C159.038 31.0167 158.698 31.4375 158.3 31.7984C157.939 32.117 157.514 32.3548 157.053 32.4958C156.53 32.6466 155.988 32.7189 155.444 32.7103C154.773 32.7213 154.104 32.6308 153.459 32.4421C152.888 32.2637 152.339 32.0207 151.823 31.7179L153.191 28.7677C153.467 28.9321 153.759 29.0669 154.063 29.17C154.342 29.2713 154.637 29.3256 154.934 29.3308C155.229 29.3465 155.523 29.2767 155.779 29.1298C156.032 28.9375 156.23 28.6835 156.356 28.3921L150.723 13.9626H155.042L158.314 23.7521L161.452 13.9626H165.689L160.165 28.6872Z" fill="#365194"/>
<path d="M173.83 28.2044V9.42981H177.96V24.4763H187.32V28.2044H173.83Z" fill="#365194"/>
<path d="M198.424 28.2044V26.6488C197.919 27.2063 197.308 27.6576 196.627 27.9764C195.825 28.3284 194.954 28.498 194.079 28.4727C193.429 28.477 192.782 28.382 192.161 28.191C191.587 28.0168 191.054 27.7296 190.592 27.3461C190.143 26.9681 189.782 26.4968 189.533 25.9649C189.263 25.3716 189.131 24.7254 189.144 24.074V24.0206C189.126 23.3169 189.273 22.6188 189.573 21.9821C189.851 21.4194 190.261 20.9318 190.767 20.5606C191.316 20.1664 191.935 19.8797 192.591 19.7157C193.357 19.5205 194.146 19.4258 194.937 19.4341C195.58 19.4262 196.222 19.4801 196.855 19.595C197.396 19.7013 197.929 19.8447 198.451 20.0241V19.7826C198.475 19.4189 198.418 19.0544 198.284 18.7156C198.149 18.3768 197.94 18.0724 197.673 17.8247C197.009 17.3321 196.191 17.0942 195.366 17.1543C194.668 17.1454 193.971 17.2128 193.288 17.3553C192.645 17.5028 192.013 17.6956 191.397 17.9321L190.378 14.8209C191.176 14.4773 192.002 14.1993 192.845 13.9895C193.866 13.7573 194.91 13.6492 195.956 13.6676C198.191 13.6676 199.818 14.213 200.838 15.3037C201.857 16.3944 202.367 17.9142 202.367 19.8632V28.2044H198.424ZM198.504 22.4111C198.121 22.2417 197.721 22.1115 197.311 22.0222C196.848 21.9214 196.376 21.8719 195.903 21.8747C195.179 21.835 194.46 22.0124 193.837 22.3842C193.595 22.5438 193.398 22.7638 193.267 23.0224C193.135 23.2811 193.073 23.5695 193.086 23.8595V23.9129C193.075 24.1617 193.125 24.4096 193.233 24.6343C193.34 24.859 193.502 25.0534 193.703 25.2003C194.176 25.5228 194.741 25.6828 195.313 25.6562C196.143 25.6984 196.963 25.4521 197.632 24.9589C197.911 24.7453 198.136 24.4687 198.287 24.1517C198.439 23.8347 198.513 23.4863 198.504 23.1351L198.504 22.4111Z" fill="#365194"/>
<path d="M220.43 24.2215C220.1 25.0842 219.608 25.8761 218.982 26.5548C218.401 27.1774 217.691 27.6669 216.903 27.9898C216.12 28.3109 215.282 28.475 214.436 28.4726C213.496 28.5098 212.564 28.2889 211.74 27.8339C211.069 27.4374 210.466 26.9341 209.957 26.3437V28.2042H205.88V8.62482H209.956V15.8753C210.448 15.2099 211.062 14.6452 211.767 14.212C212.578 13.7504 213.503 13.5246 214.436 13.5599C215.273 13.5594 216.102 13.7234 216.876 14.0427C217.667 14.3677 218.38 14.8568 218.968 15.4776C219.602 16.1535 220.098 16.946 220.43 17.8111C220.813 18.826 221 19.9046 220.98 20.9893V21.0427C221 22.1276 220.813 23.2064 220.43 24.2215ZM216.903 20.9896C216.91 20.4325 216.814 19.8789 216.622 19.3561C216.45 18.8882 216.191 18.4574 215.857 18.0871C215.546 17.7436 215.167 17.4679 214.744 17.2771C214.106 16.988 213.392 16.9107 212.707 17.0564C212.022 17.2022 211.401 17.5634 210.936 18.0871C210.609 18.4604 210.355 18.8905 210.185 19.3561C209.992 19.8789 209.896 20.4325 209.903 20.9896V21.043C209.896 21.6003 209.992 22.154 210.185 22.677C210.355 23.1425 210.609 23.5727 210.936 23.9459C211.405 24.464 212.025 24.8212 212.709 24.9666C213.393 25.112 214.105 25.0383 214.744 24.756C215.167 24.5652 215.546 24.2894 215.857 23.9459C216.189 23.5792 216.448 23.1533 216.622 22.6905C216.816 22.1634 216.912 21.6048 216.903 21.043V20.9896Z" fill="#365194"/>
<path d="M14.4519 10.2381H19.8245V17.4938H26.7201V10.2381H32.0927V29.6235H26.7201V22.257H19.8245V29.6235H14.4519V10.2381Z" fill="#365194"/>
<path d="M35.6348 10.2381H41.035V29.6235H35.6348V10.2381Z" fill="#365194"/>
<path d="M43.0278 10.2381H49.0373L53.4406 22.5062L57.8436 10.2381H63.7423L55.8776 29.7619H50.8926L43.0278 10.2381Z" fill="#365194"/>
</g>
<defs>
<clipPath id="clip0_200_686">
<rect width="220.98" height="39.9986" fill="white" transform="translate(0 0.000732422)"/>
</clipPath>
</defs>
</svg>
