<svg width="15" height="11" viewBox="0 0 15 11" fill="none" xmlns="http://www.w3.org/2000/svg">
<path d="M14.1187 3.77188C14.2312 3.6875 14.4 3.77188 14.4 3.9125V9.65C14.4 10.4094 13.7812 11 13.05 11H1.35C0.590625 11 0 10.4094 0 9.65V3.9125C0 3.77188 0.140625 3.6875 0.253125 3.77188C0.9 4.27813 1.71562 4.89688 4.58437 6.97813C5.175 7.4 6.1875 8.32813 7.2 8.32813C8.18437 8.32813 9.225 7.4 9.7875 6.97813C12.6562 4.89688 13.4719 4.27813 14.1187 3.77188ZM7.2 7.4C6.525 7.42813 5.59687 6.58438 5.11875 6.24688C1.37812 3.54688 1.09687 3.29375 0.253125 2.61875C0.084375 2.50625 0 2.30938 0 2.08438V1.55C0 0.81875 0.590625 0.2 1.35 0.2H13.05C13.7812 0.2 14.4 0.81875 14.4 1.55V2.08438C14.4 2.30938 14.2875 2.50625 14.1187 2.61875C13.275 3.29375 12.9937 3.54688 9.25312 6.24688C8.775 6.58438 7.84687 7.42813 7.2 7.4Z" fill="#365194"/>
</svg>
